<?xml version="1.0" encoding="UTF-8"?>
<svg width="181px" height="44px" viewBox="0 0 181 44" version="1.1" xmlns="http://www.w3.org/2000/svg" xmlns:xlink="http://www.w3.org/1999/xlink">
    <title>Group 2</title>
    <defs>
        <polygon id="path-1" points="0.40124893 0.38968933 36.9976114 0.38968933 36.9976114 37.0980392 0.40124893 37.0980392"></polygon>
        <polygon id="path-3" points="0.428141748 0.49235 31.6654306 0.49235 31.6654306 14.3333333 0.428141748 14.3333333"></polygon>
    </defs>
    <g id="Symbols" stroke="none" stroke-width="1" fill="none" fill-rule="evenodd">
        <g id="Nav/ProjectsNEW" transform="translate(-21.000000, -23.000000)">
            <g id="Group-2" transform="translate(21.000000, 23.000000)">
                <path d="M64.3,32 L64.3,29.096 L55.544,29.096 L63.97,18.91 L63.97,16.6 L51.012,16.6 L51.012,19.504 L59.284,19.504 L50.836,29.69 L50.836,32 L64.3,32 Z M78.512,32 L78.512,29.14 L70.13,29.14 L70.13,25.576 L77.28,25.576 L77.28,22.804 L70.13,22.804 L70.13,19.46 L78.226,19.46 L78.226,16.6 L66.588,16.6 L66.588,32 L78.512,32 Z M84.914,32 L84.914,27.71 L88.192,27.71 L91.162,32 L94.99,32 L91.536,27.05 C92.548,26.61 93.329,25.9756667 93.879,25.147 C94.429,24.3183333 94.704,23.332 94.704,22.188 C94.704,21.044 94.4326667,20.054 93.89,19.218 C93.3473333,18.382 92.5736667,17.7366667 91.569,17.282 C90.5643333,16.8273333 89.38,16.6 88.016,16.6 L88.016,16.6 L81.35,16.6 L81.35,32 L84.914,32 Z M87.818,24.872 L84.914,24.872 L84.914,19.504 L87.818,19.504 C88.8886667,19.504 89.7026667,19.735 90.26,20.197 C90.8173333,20.659 91.096,21.3226667 91.096,22.188 C91.096,23.0386667 90.8173333,23.6986667 90.26,24.168 C89.7026667,24.6373333 88.8886667,24.872 87.818,24.872 L87.818,24.872 Z M104.978,32.264 C106.576667,32.264 108.014,31.9193333 109.29,31.23 C110.566,30.5406667 111.570667,29.591 112.304,28.381 C113.037333,27.171 113.404,25.8106667 113.404,24.3 C113.404,22.7893333 113.037333,21.429 112.304,20.219 C111.570667,19.009 110.566,18.0593333 109.29,17.37 C108.014,16.6806667 106.576667,16.336 104.978,16.336 C103.379333,16.336 101.938333,16.6806667 100.655,17.37 C99.3716667,18.0593333 98.367,19.009 97.641,20.219 C96.915,21.429 96.552,22.7893333 96.552,24.3 C96.552,25.8106667 96.915,27.171 97.641,28.381 C98.367,29.591 99.3716667,30.5406667 100.655,31.23 C101.938333,31.9193333 103.379333,32.264 104.978,32.264 Z M104.978,29.228 C104.068667,29.228 103.247333,29.019 102.514,28.601 C101.780667,28.183 101.205,27.6 100.787,26.852 C100.369,26.104 100.16,25.2533333 100.16,24.3 C100.16,23.3466667 100.369,22.496 100.787,21.748 C101.205,21 101.780667,20.417 102.514,19.999 C103.247333,19.581 104.068667,19.372 104.978,19.372 C105.887333,19.372 106.708667,19.581 107.442,19.999 C108.175333,20.417 108.751,21 109.169,21.748 C109.587,22.496 109.796,23.3466667 109.796,24.3 C109.796,25.2533333 109.587,26.104 109.169,26.852 C108.751,27.6 108.175333,28.183 107.442,28.601 C106.708667,29.019 105.887333,29.228 104.978,29.228 Z M123.084,32 C124.756,32 126.233667,31.681 127.517,31.043 C128.800333,30.405 129.797667,29.5066667 130.509,28.348 C131.220333,27.1893333 131.576,25.84 131.576,24.3 C131.576,22.76 131.220333,21.4106667 130.509,20.252 C129.797667,19.0933333 128.800333,18.195 127.517,17.557 C126.233667,16.919 124.756,16.6 123.084,16.6 L123.084,16.6 L116.088,16.6 L116.088,32 L123.084,32 Z M122.908,29.074 L119.652,29.074 L119.652,19.526 L122.908,19.526 C124.448,19.526 125.676333,19.955 126.593,20.813 C127.509667,21.671 127.968,22.8333333 127.968,24.3 C127.968,25.7666667 127.509667,26.929 126.593,27.787 C125.676333,28.645 124.448,29.074 122.908,29.074 L122.908,29.074 Z M141.718,32.264 C143.316667,32.264 144.754,31.9193333 146.03,31.23 C147.306,30.5406667 148.310667,29.591 149.044,28.381 C149.777333,27.171 150.144,25.8106667 150.144,24.3 C150.144,22.7893333 149.777333,21.429 149.044,20.219 C148.310667,19.009 147.306,18.0593333 146.03,17.37 C144.754,16.6806667 143.316667,16.336 141.718,16.336 C140.119333,16.336 138.678333,16.6806667 137.395,17.37 C136.111667,18.0593333 135.107,19.009 134.381,20.219 C133.655,21.429 133.292,22.7893333 133.292,24.3 C133.292,25.8106667 133.655,27.171 134.381,28.381 C135.107,29.591 136.111667,30.5406667 137.395,31.23 C138.678333,31.9193333 140.119333,32.264 141.718,32.264 Z M141.718,29.228 C140.808667,29.228 139.987333,29.019 139.254,28.601 C138.520667,28.183 137.945,27.6 137.527,26.852 C137.109,26.104 136.9,25.2533333 136.9,24.3 C136.9,23.3466667 137.109,22.496 137.527,21.748 C137.945,21 138.520667,20.417 139.254,19.999 C139.987333,19.581 140.808667,19.372 141.718,19.372 C142.627333,19.372 143.448667,19.581 144.182,19.999 C144.915333,20.417 145.491,21 145.909,21.748 C146.327,22.496 146.536,23.3466667 146.536,24.3 C146.536,25.2533333 146.327,26.104 145.909,26.852 C145.491,27.6 144.915333,28.183 144.182,28.601 C143.448667,29.019 142.627333,29.228 141.718,29.228 Z M160.198,32.264 C161.532667,32.264 162.742667,32.0293333 163.828,31.56 C164.913333,31.0906667 165.822667,30.4086667 166.556,29.514 L166.556,29.514 L164.268,27.402 C163.226667,28.6193333 161.936,29.228 160.396,29.228 C159.442667,29.228 158.592,29.019 157.844,28.601 C157.096,28.183 156.513,27.6 156.095,26.852 C155.677,26.104 155.468,25.2533333 155.468,24.3 C155.468,23.3466667 155.677,22.496 156.095,21.748 C156.513,21 157.096,20.417 157.844,19.999 C158.592,19.581 159.442667,19.372 160.396,19.372 C161.936,19.372 163.226667,19.9733333 164.268,21.176 L164.268,21.176 L166.556,19.064 C165.822667,18.184 164.917,17.5093333 163.839,17.04 C162.761,16.5706667 161.554667,16.336 160.22,16.336 C158.636,16.336 157.209667,16.677 155.941,17.359 C154.672333,18.041 153.675,18.987 152.949,20.197 C152.223,21.407 151.86,22.7746667 151.86,24.3 C151.86,25.8253333 152.223,27.193 152.949,28.403 C153.675,29.613 154.672333,30.559 155.941,31.241 C157.209667,31.923 158.628667,32.264 160.198,32.264 Z M173.882,32.264 C175.29,32.264 176.485333,32.0513333 177.468,31.626 C178.450667,31.2006667 179.187667,30.625 179.679,29.899 C180.170333,29.173 180.416,28.37 180.416,27.49 C180.416,26.4633333 180.148333,25.6493333 179.613,25.048 C179.077667,24.4466667 178.436,24.0066667 177.688,23.728 C176.94,23.4493333 175.979333,23.1706667 174.806,22.892 C173.676667,22.6426667 172.837,22.3896667 172.287,22.133 C171.737,21.8763333 171.462,21.484 171.462,20.956 C171.462,20.428 171.700333,20.0026667 172.177,19.68 C172.653667,19.3573333 173.390667,19.196 174.388,19.196 C175.810667,19.196 177.233333,19.5993333 178.656,20.406 L178.656,20.406 L179.756,17.7 C179.052,17.26 178.230667,16.9226667 177.292,16.688 C176.353333,16.4533333 175.392667,16.336 174.41,16.336 C173.002,16.336 171.810333,16.5486667 170.835,16.974 C169.859667,17.3993333 169.13,17.975 168.646,18.701 C168.162,19.427 167.92,20.2373333 167.92,21.132 C167.92,22.1586667 168.187667,22.98 168.723,23.596 C169.258333,24.212 169.9,24.6593333 170.648,24.938 C171.396,25.2166667 172.356667,25.4953333 173.53,25.774 C174.292667,25.95 174.897667,26.1113333 175.345,26.258 C175.792333,26.4046667 176.159,26.599 176.445,26.841 C176.731,27.083 176.874,27.3873333 176.874,27.754 C176.874,28.2526667 176.632,28.6523333 176.148,28.953 C175.664,29.2536667 174.916,29.404 173.904,29.404 C172.994667,29.404 172.085333,29.2573333 171.176,28.964 C170.266667,28.6706667 169.482,28.282 168.822,27.798 L168.822,27.798 L167.612,30.482 C168.301333,31.01 169.214333,31.439 170.351,31.769 C171.487667,32.099 172.664667,32.264 173.882,32.264 Z" id="ZERODOCS" fill="#4A576B" fill-rule="nonzero"></path>
                <g id="Group-23">
                    <g id="Group-3" transform="translate(0.000000, 5.058824)">
                        <mask id="mask-2" fill="white">
                            <use xlink:href="#path-1"></use>
                        </mask>
                        <g id="Clip-2"></g>
                        <path d="M22.620172,5.45682478 C29.9437053,7.65550191 34.1044787,15.3936582 31.9121053,22.7351129 C29.7192387,30.0780515 22.001532,34.2498496 14.6779987,32.0521618 C7.355452,29.85299 3.19418533,22.1148337 5.387052,14.7718951 C7.57991867,7.42994583 15.2976253,3.2586423 22.620172,5.45682478 M1.23811867,13.2617576 C-1.74309467,23.2450873 3.455652,33.2991505 13.413092,36.2882632 C23.3695453,39.2778705 33.2253587,33.7438324 36.2055853,23.7605027 C39.1019453,14.0640645 33.843012,4.20884675 23.8860653,1.21923942 C13.9291187,-1.76987325 4.133492,3.56531942 1.23811867,13.2617576" id="Fill-1" fill="#00ADEE" mask="url(#mask-2)"></path>
                    </g>
                    <path d="M22.7045455,11.3035671 C21.716281,7.95307801 20.7289945,4.60258893 19.740241,1.25160304 C16.3382836,-3.40351006 -0.383972972,6.01651122 0.00673624161,11.673194 C2.6174953,16.1444873 6.44879278,16.5732346 10.7113863,15.5726585 L10.7123643,15.5746458 L10.7162763,15.5711681 C14.5558867,14.6704509 18.7426856,12.6131592 22.7045455,11.3035671" id="Fill-4" fill="#FEFEFE"></path>
                    <path d="M12.4556339,13.3002479 L10.6184679,9.07090132 C14.8854655,6.45767882 17.4942705,4.65773488 18.7431717,3.5225232 L20.7079661,10.185247 C19.6629771,10.5707718 18.6238561,10.9826276 17.5852241,11.3939866 C16.0771539,11.9911526 14.2903548,12.7279224 12.4556339,13.3002479 M16.8712869,1.80206892 C17.7329016,3.42763242 9.98179237,7.59487774 6.45660492,8.22234922 L9.79059411,13.9813749 C8.13337948,14.2923782 6.52897665,14.3475242 5.15391393,13.9143055 C3.62970679,13.4358772 2.48105021,12.4208936 1.57053571,11.0183979 C1.78520589,10.0640252 2.93973045,8.767847 3.44290951,8.25613233 C5.07811922,6.59281124 7.17592116,5.181373 9.11919969,4.13509038 C11.0262924,3.1101706 13.2438988,2.19007781 15.286444,1.88255219 C15.6976914,1.82144452 16.2913351,1.76331771 16.8712869,1.80206892 M22.7045455,11.3035671 C21.7162803,7.95307801 20.7289931,4.60258893 19.7407278,1.25160304 C16.3382789,-3.40351006 -0.383500776,6.01651122 0.00671972344,11.673194 C2.61796968,16.1444873 6.44926995,16.5732346 10.7113776,15.5726585 L10.7123556,15.5746458 L10.7162675,15.5711681 C14.5553918,14.6704509 18.7426827,12.6131592 22.7045455,11.3035671" id="Fill-6" fill="#00ADEE"></path>
                    <path d="M26.0681818,36.4468362 C25.7281599,25.4217503 25.3886315,14.3971497 25.0486096,3.37254902 C21.3907832,8.83243905 15.9129266,12.6909037 10.9132721,14.2171106 C6.21712047,15.6501437 1.94340533,15.0251025 0,11.7392688 C3.90161569,20.5990334 7.80421838,29.4592834 11.7068211,38.3190481 C13.755342,42.9704609 14.3036212,41.2744058 18.8329696,39.4152965 C21.2452005,38.4258098 23.6569379,37.4358377 26.0681818,36.4468362" id="Fill-8" fill="#00ADEE"></path>
                    <path d="M24.3863636,35.3971401 C24.1086433,26.1276682 23.8314059,16.8581963 23.5536855,7.58823529 C20.1500413,11.4699581 15.7905561,14.460489 11.3832546,15.8457006 C9.08759396,16.5676541 6.50551905,16.8958592 4.20454545,16.3817853 C7.52994496,24.1574591 10.8553445,31.9336221 14.180744,39.7092959 C19.1821255,41.275485 23.0412311,40.6958678 24.3863636,35.3971401" id="Fill-10" fill="#FEFEFE"></path>
                    <path d="M23.5454545,22.6031016 C24.0993335,20.986153 24.6522017,19.3687503 25.2050699,17.752256 C27.0264018,15.3418217 35.5837303,18.3122834 35.3118445,20.9389163 C33.903395,23.2012817 31.9107448,23.7072594 29.7129168,23.5928012 L29.7129168,23.5932554 L29.71039,23.5928012 C27.7308792,23.4896981 25.5840929,22.8833424 23.5454545,22.6031016" id="Fill-12" fill="#FEFEFE"></path>
                    <path d="M28.8366156,22.6916019 L29.8412792,20.6026052 C27.6596228,19.7482014 26.3289994,19.1336303 25.6947676,18.7139232 L24.5950956,21.9289523 C25.1322975,22.0216149 25.6664672,22.1265417 26.1991209,22.2314684 C26.9738439,22.3827265 27.8925957,22.5771363 28.8366156,22.6916019 M26.6862918,17.7727619 C26.2198408,18.5885562 30.1884643,19.874477 32.0097961,19.8767481 L30.2096896,22.7883525 C31.0657762,22.7974371 31.8971,22.6929646 32.6152222,22.3827265 C33.4111705,22.0402383 34.0201341,21.4819915 34.5088211,20.7647647 C34.4092644,20.3441492 33.8260743,19.8431352 33.5718763,19.6491796 C32.74409,19.0178021 31.6732237,18.5394995 30.678162,18.2169973 C29.7017988,17.9004001 28.5632137,17.6573878 27.5080136,17.6819162 C27.29475,17.6869127 26.9879941,17.7082614 26.6862918,17.7727619 M23.5454545,22.6034816 C24.0993335,20.9864282 24.6522017,19.3689207 25.2050699,17.7523216 C27.0264018,15.3417311 35.5837303,18.3123853 35.3118445,20.9387342 C33.903395,23.2017004 31.9107448,23.7072567 29.7129168,23.5927911 L29.7129168,23.5936996 L29.71039,23.5927911 C27.7308792,23.4896813 25.5840929,22.8832863 23.5454545,22.6034816" id="Fill-14" fill="#00ADEE"></path>
                    <path d="M21.0227273,36.3057248 C21.3293694,30.6685248 21.6355154,25.0303408 21.9421576,19.3921569 C23.7204837,21.8520975 26.4370952,23.3398696 28.9408434,23.6832773 C31.2927591,24.0050376 33.4561245,23.3167462 34.4772727,21.4757266 C32.1337922,26.9426987 29.7903117,32.4086868 27.4473273,37.875167 C24.8344185,39.6773195 22.2651739,41.2689011 21.0227273,36.3057248" id="Fill-16" fill="#00ADEE"></path>
                    <path d="M21.8636364,36.0587882 C22.1061157,31.3463817 22.3481243,26.6339751 22.5906037,21.9215686 C24.2112135,23.5832341 26.3092487,24.7080994 28.4487173,25.0171662 C29.5641225,25.1783542 30.8231319,25.1157521 31.9545455,24.6504266 C30.2383564,28.8787763 28.5216965,33.1056472 26.8059783,37.3325181 C24.4428637,40.083558 22.4648911,41.1241323 21.8636364,36.0587882" id="Fill-18" fill="#FEFEFE"></path>
                    <g id="Group-22" transform="translate(5.045455, 28.666667)">
                        <mask id="mask-4" fill="white">
                            <use xlink:href="#path-3"></use>
                        </mask>
                        <g id="Clip-21"></g>
                        <path d="M0.428141748,7.89449286 C2.59171028,10.4422429 5.47745154,12.4151238 8.94181587,13.4952429 C18.8634564,16.5891952 28.6843173,10.8620048 31.6546152,0.530230952 L31.6654306,0.49235 L26.5300893,1.70965952 C23.6089522,7.8878381 16.7480655,11.1517429 10.2022998,9.11129048 C8.49887671,8.57942143 6.96702497,7.73580238 5.64656483,6.65773095 L0.428141748,7.89449286 Z" id="Fill-20" fill="#00ADEE" mask="url(#mask-4)"></path>
                    </g>
                </g>
            </g>
        </g>
    </g>
</svg>