<?xml version="1.0" encoding="UTF-8"?>
<svg width="32px" className="nav-icon" height="32px" viewBox="0 0 32 32" version="1.1" xmlns="http://www.w3.org/2000/svg">
	<title>
		Notifications
	</title>
	<g id="Icon-Notifications" stroke="none" stroke-width="1" fill="none" fill-rule="evenodd">
		<g id="Group" transform="translate(4.000000, 4.000000)" fill="#A6B1C0" fill-rule="nonzero">
			<g id="np_notification_1594309_000000">
				<path d="M23.25,17.2075472 C23.25,18.7075472 22.0466429,19.9245283 20.5620971,19.9245283 L2.68790288,19.9245283 C1.20335709,19.9245283 0,18.7093132 0,17.2075472 C0,15.7075472 1.20161335,14.490566 2.68441541,14.490566 C2.68266899,14.490566 2.68266899,9.05660377 2.68266899,9.05660377 C2.68266899,4.05237736 6.68570695,0 11.6249079,0 C16.5641088,0 20.5671468,4.05423396 20.5671468,9.05660377 L20.5671468,14.490566 C22.0447176,14.490566 23.25,15.7075472 23.25,17.2075472 L23.25,17.2075472 Z M20.5655846,16.3018868 C19.5788085,16.3018868 18.7788805,15.4934943 18.7788805,14.490566 L18.7788805,9.05660377 C18.7788805,5.05544151 15.5774696,1.81132075 11.6250894,1.81132075 C7.67270925,1.81132075 4.4712983,5.05367547 4.4712983,9.05660377 L4.4712983,14.490566 C4.4712983,15.4899623 3.66962658,16.3018868 2.68459425,16.3018868 C2.190312,16.3018868 1.78862663,16.7087275 1.78862663,17.2075472 C1.78862663,17.7081509 2.19032988,18.1132075 2.68808173,18.1132075 L20.562276,18.1132075 C21.058302,18.1132075 21.4617311,17.7063668 21.4617311,17.2075472 C21.4617311,16.7087275 21.0582841,16.3018868 20.5657634,16.3018868 L20.5655846,16.3018868 Z M7.60112663,19.9245283 L9.38957441,19.9245283 C9.38957441,21.1751094 10.3903451,22.1886792 11.6251341,22.1886792 C12.8599232,22.1886792 13.8606939,21.1751094 13.8606939,19.9245283 L15.6491416,19.9245283 C15.6491416,22.1745509 13.846744,24 11.6251341,24 C9.4035243,24 7.60112663,22.1745509 7.60112663,19.9245283 Z" id="Shape">
				</path>
			</g>
		</g>
	</g>
</svg>
