<?xml version="1.0" encoding="UTF-8"?>
<svg width="20px" height="20px" viewBox="0 0 20 20" version="1.1" xmlns="http://www.w3.org/2000/svg" xmlns:xlink="http://www.w3.org/1999/xlink">
    <title>Search</title>
    <g id="Page-1" stroke="none" stroke-width="1" fill="none" fill-rule="evenodd">
        <g id="My-Project-Specs--with-design-notes" transform="translate(-161.000000, -1682.000000)" fill="#00ADEE" fill-rule="nonzero">
            <g id="Group-7" transform="translate(147.000000, 1672.000000)">
                <path d="M26.2235723,10 C21.9374239,10 18.4471446,13.4902793 18.4471446,17.7764277 C18.4471446,19.6385174 19.1002432,21.3456867 20.1968408,22.6852977 L14,28.8821385 L15.1178615,30 L21.3147023,23.8031592 C22.6543133,24.8997568 24.3614826,25.5528554 26.2235723,25.5528554 C30.5097207,25.5528554 34,22.0625761 34,17.7764277 C34,13.4902793 30.5097207,10 26.2235723,10 Z M26.3076923,11.5384615 C29.7151446,11.5384615 32.4615385,14.2848562 32.4615385,17.6923077 C32.4615385,21.09976 29.7151446,23.8461538 26.3076923,23.8461538 C22.9002408,23.8461538 20.1538462,21.09976 20.1538462,17.6923077 C20.1538462,14.2848562 22.9002408,11.5384615 26.3076923,11.5384615 Z" id="Search"></path>
            </g>
        </g>
    </g>
</svg>