<?xml version="1.0" encoding="UTF-8"?>
<svg width="16px" height="15px" className="ml-2" viewBox="0 0 16 15" version="1.1" xmlns="http://www.w3.org/2000/svg">
	<g id="Page-1" stroke="none" stroke-width="1" fill="none" fill-rule="evenodd">
		<g id="My-Projects---with-design-notes" transform="translate(-124.000000, -1316.000000)" fill="#fa8c16">
			<path d="M135.515817,1320.35021 L138.973981,1320.83762 C139.954711,1320.97561 140.347147,1322.15364 139.6388,1322.83055 L137.140338,1325.21821 C136.858826,1325.48731 136.731063,1325.87382 136.797757,1326.25345 L137.392377,1329.61999 C137.560864,1330.57491 136.537307,1331.30397 135.659772,1330.85431 L132.565181,1329.26782 C132.216974,1329.08934 131.800671,1329.08934 131.452465,1329.26919 L128.362186,1330.86256 C127.486053,1331.31427 126.459674,1330.58727 126.626059,1329.63235 L127.21225,1326.2644 C127.278241,1325.88546 127.149068,1325.49826 126.866847,1325.22985 L124.363352,1322.84834 C123.652903,1322.17282 124.043236,1320.99407 125.023265,1320.854 L128.479992,1320.35904 C128.868923,1320.30343 129.205197,1320.06384 129.379291,1319.71854 L130.921645,1316.65269 C131.35901,1315.78358 132.626176,1315.78221 133.0657,1316.64994 L134.615781,1319.71175 C134.789885,1320.05637 135.126868,1320.29527 135.515781,1320.35019 L135.515817,1320.35021 Z" id="Fill-1">
			</path>
		</g>
	</g>
</svg>
