<?xml version="1.0" encoding="UTF-8"?>
<svg width="32px" height="32px" className="nav-icon" viewBox="0 0 32 32" version="1.1" xmlns="http://www.w3.org/2000/svg">
	<title>
		Zerdocs-spec
	</title>
	<g id="Zerdocs-spec" stroke="none" stroke-width="1" fill="none" fill-rule="evenodd">
		<g id="Group-6" transform="translate(4.000000, 9.000000)" fill="#A6B1C0">
			<g id="Group-8" transform="translate(12.000000, 7.000000) scale(-1, 1) translate(-12.000000, -7.000000) ">
				<polygon id="Fill-3" points="0 8 1.88809812 8 2.56789658 11.3588878 3.56259686 8 5.44391231 8 6.44118344 11.3544492 7.12163829 8 9 8 7.5820393 14 5.63278776 14 4.50440326 10.2223035 3.38055878 14 1.43125255 14">
				</polygon>
				<polygon id="Line-21" fill-rule="nonzero" points="24 0 24 2 0 2 0 0">
				</polygon>
				<polygon id="Line-21" fill-rule="nonzero" points="24 4 24 6 5 6 5 4">
				</polygon>
				<polygon id="Line-21" fill-rule="nonzero" points="24 8 24 10 13 10 13 8">
				</polygon>
				<polygon id="Line-21" fill-rule="nonzero" points="24 12 24 14 18 14 18 12">
				</polygon>
			</g>
		</g>
	</g>
</svg>
